<mxfile host="Electron" modified="2023-08-31T08:59:37.506Z" agent="Mozilla/5.0 (Windows NT 10.0; Win64; x64) AppleWebKit/537.36 (KHTML, like Gecko) draw.io/21.6.8 Chrome/114.0.5735.289 Electron/25.5.0 Safari/537.36" etag="tNGNNRs98OfhsKi8qDHx" version="21.6.8" type="device">
  <diagram name="Page-1" id="PRC118GnW3bNMwE9SSp2">
    <mxGraphModel dx="987" dy="2279" grid="1" gridSize="10" guides="1" tooltips="1" connect="1" arrows="1" fold="1" page="1" pageScale="1" pageWidth="1169" pageHeight="1654" math="0" shadow="0">
      <root>
        <mxCell id="0" />
        <mxCell id="1" parent="0" />
        <mxCell id="AUXqQYhrxNp9Ba_ZeitR-4" style="edgeStyle=none;curved=1;rounded=0;orthogonalLoop=1;jettySize=auto;html=1;entryX=0.5;entryY=0;entryDx=0;entryDy=0;fontSize=12;startSize=8;endSize=8;" edge="1" parent="1" source="6pcLV4aVXLV8ROIYuBY9-1" target="AUXqQYhrxNp9Ba_ZeitR-1">
          <mxGeometry relative="1" as="geometry" />
        </mxCell>
        <mxCell id="6pcLV4aVXLV8ROIYuBY9-1" value="&lt;font style=&quot;font-size: 14px;&quot;&gt;&lt;b&gt;Ready to Receive&lt;/b&gt; State&lt;/font&gt;" style="rounded=1;whiteSpace=wrap;html=1;fillColor=#fff2cc;strokeColor=#d6b656;" parent="1" vertex="1">
          <mxGeometry x="110" y="-960" width="140" height="60" as="geometry" />
        </mxCell>
        <mxCell id="AUXqQYhrxNp9Ba_ZeitR-6" style="edgeStyle=orthogonalEdgeStyle;rounded=1;orthogonalLoop=1;jettySize=auto;html=1;entryX=0.5;entryY=0;entryDx=0;entryDy=0;fontSize=12;startSize=8;endSize=8;exitX=0;exitY=0.5;exitDx=0;exitDy=0;" edge="1" parent="1" source="6pcLV4aVXLV8ROIYuBY9-6" target="6pcLV4aVXLV8ROIYuBY9-1">
          <mxGeometry relative="1" as="geometry" />
        </mxCell>
        <mxCell id="AUXqQYhrxNp9Ba_ZeitR-7" value="&lt;font style=&quot;font-size: 12px;&quot;&gt;String Ready to be Received&lt;br&gt;&lt;/font&gt;" style="edgeLabel;html=1;align=center;verticalAlign=middle;resizable=0;points=[];fontSize=16;" vertex="1" connectable="0" parent="AUXqQYhrxNp9Ba_ZeitR-6">
          <mxGeometry x="0.2052" y="-5" relative="1" as="geometry">
            <mxPoint y="18" as="offset" />
          </mxGeometry>
        </mxCell>
        <mxCell id="AUXqQYhrxNp9Ba_ZeitR-12" style="edgeStyle=orthogonalEdgeStyle;rounded=1;orthogonalLoop=1;jettySize=auto;html=1;entryX=0.5;entryY=0;entryDx=0;entryDy=0;fontSize=12;startSize=8;endSize=8;exitX=1;exitY=0.5;exitDx=0;exitDy=0;" edge="1" parent="1" source="6pcLV4aVXLV8ROIYuBY9-6" target="AUXqQYhrxNp9Ba_ZeitR-2">
          <mxGeometry relative="1" as="geometry" />
        </mxCell>
        <mxCell id="AUXqQYhrxNp9Ba_ZeitR-14" value="&lt;font style=&quot;font-size: 12px;&quot;&gt;String Ready to be Transmitted&lt;br&gt;&lt;/font&gt;" style="edgeLabel;html=1;align=center;verticalAlign=middle;resizable=0;points=[];fontSize=16;" vertex="1" connectable="0" parent="AUXqQYhrxNp9Ba_ZeitR-12">
          <mxGeometry x="0.3247" y="-3" relative="1" as="geometry">
            <mxPoint x="13" y="7" as="offset" />
          </mxGeometry>
        </mxCell>
        <mxCell id="6pcLV4aVXLV8ROIYuBY9-6" value="&lt;font style=&quot;font-size: 14px;&quot;&gt;&lt;b&gt;Idle&lt;/b&gt; State&lt;/font&gt;" style="rounded=1;whiteSpace=wrap;html=1;fillColor=#fff2cc;strokeColor=#d6b656;" parent="1" vertex="1">
          <mxGeometry x="250" y="-1090" width="140" height="60" as="geometry" />
        </mxCell>
        <mxCell id="AUXqQYhrxNp9Ba_ZeitR-17" style="edgeStyle=none;curved=1;rounded=0;orthogonalLoop=1;jettySize=auto;html=1;entryX=0.5;entryY=0;entryDx=0;entryDy=0;fontSize=12;startSize=8;endSize=8;" edge="1" parent="1" source="AUXqQYhrxNp9Ba_ZeitR-1" target="AUXqQYhrxNp9Ba_ZeitR-10">
          <mxGeometry relative="1" as="geometry" />
        </mxCell>
        <mxCell id="AUXqQYhrxNp9Ba_ZeitR-18" value="&lt;font style=&quot;font-size: 12px;&quot;&gt;Reception Complete&lt;/font&gt;" style="edgeLabel;html=1;align=center;verticalAlign=middle;resizable=0;points=[];fontSize=16;" vertex="1" connectable="0" parent="AUXqQYhrxNp9Ba_ZeitR-17">
          <mxGeometry x="-0.1897" y="-2" relative="1" as="geometry">
            <mxPoint as="offset" />
          </mxGeometry>
        </mxCell>
        <mxCell id="AUXqQYhrxNp9Ba_ZeitR-1" value="&lt;font style=&quot;font-size: 14px;&quot;&gt;&lt;b&gt;Receive Complete&amp;nbsp;&lt;br&gt;&lt;/b&gt;State&lt;/font&gt;" style="rounded=1;whiteSpace=wrap;html=1;fillColor=#fff2cc;strokeColor=#d6b656;" vertex="1" parent="1">
          <mxGeometry x="110" y="-840" width="140" height="60" as="geometry" />
        </mxCell>
        <mxCell id="AUXqQYhrxNp9Ba_ZeitR-16" style="edgeStyle=none;curved=1;rounded=0;orthogonalLoop=1;jettySize=auto;html=1;entryX=0.5;entryY=0;entryDx=0;entryDy=0;fontSize=12;startSize=8;endSize=8;" edge="1" parent="1" source="AUXqQYhrxNp9Ba_ZeitR-2" target="AUXqQYhrxNp9Ba_ZeitR-3">
          <mxGeometry relative="1" as="geometry" />
        </mxCell>
        <mxCell id="AUXqQYhrxNp9Ba_ZeitR-2" value="&lt;font style=&quot;font-size: 14px;&quot;&gt;&lt;b&gt;Ready to Transmit&lt;/b&gt; State&lt;/font&gt;" style="rounded=1;whiteSpace=wrap;html=1;fillColor=#fff2cc;strokeColor=#d6b656;" vertex="1" parent="1">
          <mxGeometry x="390" y="-960" width="140" height="60" as="geometry" />
        </mxCell>
        <mxCell id="AUXqQYhrxNp9Ba_ZeitR-19" style="edgeStyle=none;curved=1;rounded=0;orthogonalLoop=1;jettySize=auto;html=1;entryX=0.5;entryY=0;entryDx=0;entryDy=0;fontSize=12;startSize=8;endSize=8;" edge="1" parent="1" source="AUXqQYhrxNp9Ba_ZeitR-3" target="AUXqQYhrxNp9Ba_ZeitR-11">
          <mxGeometry relative="1" as="geometry" />
        </mxCell>
        <mxCell id="AUXqQYhrxNp9Ba_ZeitR-20" value="&lt;font style=&quot;font-size: 12px;&quot;&gt;Transmission Complete&lt;/font&gt;" style="edgeLabel;html=1;align=center;verticalAlign=middle;resizable=0;points=[];fontSize=16;" vertex="1" connectable="0" parent="AUXqQYhrxNp9Ba_ZeitR-19">
          <mxGeometry x="-0.1897" relative="1" as="geometry">
            <mxPoint as="offset" />
          </mxGeometry>
        </mxCell>
        <mxCell id="AUXqQYhrxNp9Ba_ZeitR-3" value="&lt;font style=&quot;font-size: 14px;&quot;&gt;&lt;b&gt;Transmit Complete&amp;nbsp;&lt;br&gt;&lt;/b&gt;State&lt;/font&gt;" style="rounded=1;whiteSpace=wrap;html=1;fillColor=#fff2cc;strokeColor=#d6b656;" vertex="1" parent="1">
          <mxGeometry x="390" y="-840" width="140" height="60" as="geometry" />
        </mxCell>
        <mxCell id="AUXqQYhrxNp9Ba_ZeitR-21" style="edgeStyle=orthogonalEdgeStyle;rounded=1;orthogonalLoop=1;jettySize=auto;html=1;entryX=0.5;entryY=1;entryDx=0;entryDy=0;fontSize=12;startSize=8;endSize=8;exitX=0.5;exitY=1;exitDx=0;exitDy=0;" edge="1" parent="1" source="AUXqQYhrxNp9Ba_ZeitR-10" target="6pcLV4aVXLV8ROIYuBY9-6">
          <mxGeometry relative="1" as="geometry" />
        </mxCell>
        <mxCell id="AUXqQYhrxNp9Ba_ZeitR-10" value="&lt;span style=&quot;font-size: 14px;&quot;&gt;&lt;b&gt;LED 0 &lt;/b&gt;&lt;br&gt;Turns On&lt;/span&gt;" style="rounded=1;whiteSpace=wrap;html=1;fillColor=#fff2cc;strokeColor=#d6b656;" vertex="1" parent="1">
          <mxGeometry x="110" y="-710" width="140" height="60" as="geometry" />
        </mxCell>
        <mxCell id="AUXqQYhrxNp9Ba_ZeitR-22" style="edgeStyle=orthogonalEdgeStyle;rounded=1;orthogonalLoop=1;jettySize=auto;html=1;entryX=0.5;entryY=1;entryDx=0;entryDy=0;fontSize=12;startSize=8;endSize=8;exitX=0.5;exitY=1;exitDx=0;exitDy=0;" edge="1" parent="1" source="AUXqQYhrxNp9Ba_ZeitR-11" target="6pcLV4aVXLV8ROIYuBY9-6">
          <mxGeometry relative="1" as="geometry" />
        </mxCell>
        <mxCell id="AUXqQYhrxNp9Ba_ZeitR-11" value="&lt;span style=&quot;font-size: 14px;&quot;&gt;&lt;b&gt;LED 1 &lt;/b&gt;&lt;br&gt;Turns On&lt;/span&gt;" style="rounded=1;whiteSpace=wrap;html=1;fillColor=#fff2cc;strokeColor=#d6b656;" vertex="1" parent="1">
          <mxGeometry x="390" y="-710" width="140" height="60" as="geometry" />
        </mxCell>
      </root>
    </mxGraphModel>
  </diagram>
</mxfile>
